# xmcd
# Copyright (C) 1995-1998 Ti Kan
#
# Track frame offsets:
#       150
#       15958
#       28767
#       42658
#       56074
#       68954
#       85210
#       97951
#       116512
#       128749
#       146815
#       162414
#
# Disc length: 2318 seconds
#
# Revision: 0
# Processed by: cddbd v1.5.2PL0 Copyright (c) Steve Scherf et al.
# Submitted via: CD-Import v1.0
#
DISCID=a3090c0c
DTITLE=Allen Toussaint - Life, Love And Faith
DYEAR=1972
DGENRE=
TTITLE0=Victims Of The Darkness
TTITLE1=Am I Expecting Too Much?
TTITLE2=My Baby Is The Real Thing
TTITLE3=Goin' Down
TTITLE4=She Once Belonged To Me
TTITLE5=Out Of The City (Into Country Life)
TTITLE6=Soul Sister
TTITLE7=Fingers And Toes
TTITLE8=I've Got To Convince Myself
TTITLE9=On Your Way Down
TTITLE10=Gone To Far
TTITLE11=Electricity
EXTD=
EXTT0=
EXTT1=
EXTT2=
EXTT3=
EXTT4=
EXTT5=
EXTT6=
EXTT7=
EXTT8=
EXTT9=
EXTT10=
EXTT11=
PLAYORDER=
